<?xml version="1.0" standalone="no"?>
<!DOCTYPE svg PUBLIC "-//W3C//DTD SVG 20010904//EN"
 "http://www.w3.org/TR/2001/REC-SVG-20010904/DTD/svg10.dtd">
<svg version="1.0" xmlns="http://www.w3.org/2000/svg"
 width="500.000000pt" height="500.000000pt" viewBox="0 0 500.000000 500.000000"
 preserveAspectRatio="xMidYMid meet">

<g transform="translate(0.000000,500.000000) scale(0.100000,-0.100000)"
fill="#000000" stroke="none">
<path d="M2216 4238 c-3 -7 -7 -26 -11 -41 -8 -37 -47 -73 -91 -84 -46 -11
-44 -25 6 -41 45 -15 90 -63 90 -97 0 -12 7 -28 15 -35 16 -13 18 -11 30 44 9
40 55 83 99 91 45 9 42 27 -7 38 -47 11 -97 67 -97 107 0 30 -26 44 -34 18z"/>
<path d="M2675 4002 l-230 -117 -42 -125 c-32 -92 -43 -141 -43 -185 l0 -61
-61 -59 c-45 -45 -74 -86 -110 -159 -28 -54 -49 -100 -47 -102 12 -11 140 -36
240 -46 138 -14 319 -1 438 32 41 12 76 23 78 25 2 2 -6 34 -18 72 l-23 69 32
62 c45 89 42 100 -39 186 -100 105 -100 111 35 291 68 91 104 149 105 166 0
30 -37 69 -66 69 -10 -1 -122 -54 -249 -118z"/>
<path d="M3170 3700 c0 -51 -50 -108 -102 -119 -19 -4 -33 -13 -33 -21 0 -8
14 -17 33 -21 52 -11 102 -68 102 -119 0 -11 7 -20 15 -20 8 0 15 9 15 20 0
51 50 108 102 119 19 4 33 13 33 21 0 8 -14 17 -33 21 -52 11 -102 68 -102
119 0 11 -7 20 -15 20 -8 0 -15 -9 -15 -20z"/>
<path d="M1910 3680 c0 -54 -65 -120 -117 -120 -37 0 -26 -26 15 -38 46 -14
88 -56 99 -100 11 -43 25 -42 38 3 13 48 48 82 96 96 42 13 53 39 17 39 -53 0
-118 66 -118 120 0 11 -7 20 -15 20 -8 0 -15 -9 -15 -20z"/>
<path d="M1980 3191 c-91 -39 -140 -71 -187 -125 -133 -151 -32 -324 242 -415
148 -49 257 -64 465 -65 188 0 271 9 410 46 94 24 222 86 277 132 109 95 109
237 0 332 -38 33 -196 119 -204 111 -1 -2 15 -57 37 -122 45 -134 49 -183 20
-230 -24 -39 -59 -57 -165 -84 -254 -66 -467 -66 -740 -2 -136 32 -181 67
-192 148 -4 32 6 59 61 171 36 72 60 132 53 131 -6 0 -41 -13 -77 -28z"/>
<path d="M2855 3119 c-204 -67 -507 -64 -736 6 -11 4 -28 -20 -63 -94 -45 -93
-47 -101 -34 -128 16 -33 66 -52 228 -85 121 -25 350 -30 460 -9 203 37 280
69 280 115 0 24 -62 216 -70 215 -3 -1 -32 -10 -65 -20z"/>
<path d="M2454 2470 c-12 -5 -25 -13 -28 -19 -4 -5 -27 -13 -51 -17 -54 -8
-85 -41 -85 -91 0 -49 19 -79 93 -150 59 -57 70 -63 107 -63 55 0 84 17 152
88 61 64 74 93 64 146 -8 42 -30 62 -79 70 -21 4 -53 16 -70 27 -34 20 -68 23
-103 9z"/>
<path d="M1467 2402 c-21 -4 -22 -28 -1 -36 9 -3 38 -6 66 -6 110 0 322 -39
496 -91 56 -17 109 -28 117 -25 9 3 15 18 15 36 0 39 -25 50 -166 79 -132 27
-468 54 -527 43z"/>
<path d="M3340 2399 c-228 -12 -427 -46 -487 -85 -27 -17 -30 -46 -8 -64 13
-11 31 -8 103 13 192 58 403 97 525 97 56 0 88 13 72 28 -18 17 -48 19 -205
11z"/>
<path d="M1950 2210 c-143 -9 -335 -39 -529 -81 -74 -16 -136 -29 -138 -29 -8
0 -2 -30 7 -35 6 -4 43 1 83 10 143 31 296 46 530 52 187 5 241 9 253 20 17
18 17 24 1 46 -16 23 -58 26 -207 17z"/>
<path d="M2853 2210 c-25 -10 -31 -48 -11 -68 8 -8 63 -12 183 -12 224 0 481
-26 648 -65 12 -3 29 -1 37 5 29 20 -17 37 -183 69 -256 49 -326 59 -437 66
-58 3 -130 7 -160 10 -30 2 -65 0 -77 -5z"/>
<path d="M2085 2103 c-139 -34 -415 -146 -415 -169 0 -21 34 -17 114 12 39 14
141 40 226 57 143 30 155 34 158 55 6 43 -24 59 -83 45z"/>
<path d="M2828 2085 c-17 -38 4 -53 98 -69 124 -22 244 -52 297 -75 51 -22 92
-27 101 -12 9 14 -11 26 -127 75 -116 49 -294 106 -334 106 -15 0 -27 -9 -35
-25z"/>
<path d="M1750 1850 c-41 -21 -146 -50 -183 -50 -60 0 -98 -40 -63 -69 17 -14
46 -15 119 -6 l57 8 -5 -29 c-2 -16 -7 -90 -10 -164 -3 -74 -10 -196 -14 -270
-7 -101 -5 -166 6 -260 17 -151 27 -186 59 -207 22 -14 27 -14 40 -1 13 12 13
19 -1 50 -27 65 -38 253 -25 442 6 94 13 185 16 201 13 83 16 223 5 229 -21
14 -11 24 39 41 60 20 87 53 70 84 -14 27 -62 27 -110 1z"/>
<path d="M4535 1840 c-38 -16 -95 -32 -125 -36 -81 -10 -100 -19 -100 -48 0
-33 44 -45 117 -32 29 5 56 6 60 3 3 -4 0 -94 -7 -199 -22 -333 -23 -425 -6
-545 17 -127 35 -178 64 -185 41 -11 47 5 26 74 -16 54 -19 95 -18 283 0 123
7 266 14 325 16 120 19 215 7 247 -7 18 -2 23 40 39 26 11 51 18 54 17 13 -4
19 60 8 73 -17 20 -55 15 -134 -16z"/>
<path d="M2736 1852 c-11 -18 -22 -194 -32 -499 l-7 -211 -37 -4 -37 -3 -6
167 c-3 92 -2 192 3 221 16 103 -6 197 -46 197 -33 0 -36 -39 -35 -446 0 -221
4 -409 7 -417 6 -17 37 -28 52 -18 5 3 13 56 17 116 4 61 8 111 8 111 1 1 18
4 38 8 l36 6 7 -120 c7 -130 15 -164 42 -174 29 -11 50 18 46 64 -2 22 -8 40
-13 40 -5 0 -9 5 -9 11 0 5 5 7 12 3 7 -5 8 -3 3 6 -4 7 -7 54 -6 104 0 50 -4
103 -10 118 -6 15 -8 36 -4 45 12 32 14 147 1 156 -8 5 -8 9 0 15 7 4 15 65
19 157 5 83 9 161 10 175 7 69 7 159 1 169 -8 13 -52 15 -60 3z"/>
<path d="M518 1823 c-19 -5 -33 -72 -48 -243 -11 -128 -13 -670 -2 -740 6 -39
10 -45 34 -48 34 -4 43 12 57 107 7 41 14 77 16 81 3 4 7 25 11 46 10 65 53
226 74 279 5 11 11 31 14 45 2 14 12 54 22 89 22 81 25 73 53 -129 28 -200 56
-335 76 -366 24 -37 57 -31 77 14 23 50 27 79 33 197 9 208 16 324 27 447 10
124 7 178 -11 178 -21 0 -39 -32 -50 -89 -16 -83 -41 -358 -41 -459 0 -46 -4
-81 -8 -78 -5 3 -17 72 -26 153 -35 304 -52 386 -83 397 -39 15 -52 -3 -92
-132 -22 -70 -56 -187 -75 -261 -19 -73 -38 -136 -41 -139 -5 -6 -4 27 10 288
8 138 26 284 37 291 12 8 -16 65 -34 71 -7 2 -20 3 -30 1z"/>
<path d="M3952 1808 c-5 -7 -12 -65 -16 -128 -11 -186 -37 -328 -96 -525 -68
-226 -65 -214 -47 -232 14 -15 20 -15 42 -3 14 7 25 17 25 21 0 5 9 33 21 64
l21 56 40 -3 41 -3 18 -90 c10 -49 23 -107 29 -127 17 -60 69 -73 70 -17 0 13
-8 65 -19 114 -29 128 -50 339 -56 565 -7 276 -14 320 -50 320 -7 0 -17 -6
-23 -12z m16 -600 c2 -34 6 -66 8 -70 3 -4 -9 -8 -26 -8 -27 0 -31 3 -25 18 3
9 11 41 17 70 6 28 14 52 17 52 3 0 8 -28 9 -62z"/>
<path d="M1215 1668 c-14 -42 -27 -241 -32 -509 l-6 -307 22 -12 c49 -26 53
-16 52 128 -2 153 16 534 29 607 8 42 6 54 -9 75 -21 29 -49 38 -56 18z"/>
<path d="M2191 1643 c-31 -21 -87 -143 -112 -246 -17 -67 -20 -102 -16 -192 8
-163 40 -235 122 -275 65 -31 95 -22 130 41 15 28 24 53 21 56 -3 3 -28 -6
-55 -21 -28 -14 -57 -26 -66 -26 -40 0 -82 173 -70 291 11 111 68 262 114 303
56 51 -5 114 -68 69z"/>
<path d="M3425 1628 c-66 -78 -115 -240 -115 -380 0 -204 53 -313 163 -333 33
-6 40 -4 66 24 27 29 57 91 44 91 -3 0 -30 -12 -60 -27 -65 -33 -80 -27 -106
42 -29 79 -33 215 -9 312 25 97 66 188 98 216 29 25 30 48 6 70 -28 26 -57 20
-87 -15z"/>
</g>
</svg>
