<svg width="90" height="85" viewBox="0 0 90 85" fill="none" xmlns="http://www.w3.org/2000/svg">
<path d="M39.816 7.654C39.726 7.762 39.582 8.122 39.528 8.428C39.366 9.13 38.772 9.724 37.854 10.03C37.026 10.318 36.972 10.696 37.71 10.84C38.808 11.074 39.456 11.758 39.636 12.91C39.726 13.504 40.158 13.324 40.41 12.586C40.734 11.65 41.292 11.074 42.084 10.894C43.056 10.66 43.02 10.264 41.994 9.94C41.058 9.652 40.32 8.806 40.32 8.032C40.32 7.528 40.068 7.348 39.816 7.654Z" fill="white"/>
<path d="M48.456 11.992C46.242 13.108 44.316 14.152 44.154 14.296C44.01 14.458 43.56 15.52 43.182 16.69C42.66 18.274 42.48 19.066 42.48 19.966V21.136L41.31 22.288C40.41 23.17 39.924 23.854 39.24 25.24C38.736 26.248 38.376 27.112 38.412 27.202C38.466 27.274 39.132 27.49 39.906 27.688C41.058 27.976 41.976 28.03 45.09 28.03C48.474 28.03 49.05 27.994 50.544 27.598C51.606 27.328 52.272 27.076 52.344 26.896C52.398 26.734 52.272 26.122 52.056 25.51L51.66 24.412L52.29 23.134C52.632 22.432 52.92 21.712 52.92 21.55C52.92 21.37 52.308 20.614 51.57 19.858C49.626 17.86 49.644 17.788 52.2 14.332C53.388 12.73 54.18 11.488 54.18 11.236C54.18 10.696 53.406 9.93999 52.884 9.93999C52.65 9.95799 50.67 10.876 48.456 11.992Z" fill="white"/>
<path d="M57.546 17.626C57.492 17.698 57.402 18.022 57.348 18.328C57.186 19.048 56.358 19.84 55.584 20.002C54.9 20.146 54.63 20.74 55.26 20.74C56.232 20.74 57.42 21.91 57.42 22.846C57.42 23.332 57.924 23.404 58.068 22.936C58.482 21.586 59.328 20.74 60.264 20.74C60.93 20.74 60.696 20.146 59.976 20.002C59.184 19.84 58.392 19.048 58.194 18.256C58.05 17.644 57.726 17.32 57.546 17.626Z" fill="white"/>
<path d="M33.912 18.49C33.768 19.282 32.994 20.146 32.292 20.29C31.446 20.488 31.32 20.542 31.32 20.74C31.32 20.938 31.446 20.992 32.292 21.19C32.994 21.334 33.768 22.198 33.912 22.99C33.984 23.35 34.146 23.62 34.29 23.62C34.434 23.62 34.596 23.35 34.668 22.99C34.812 22.198 35.586 21.334 36.288 21.19C37.134 20.992 37.26 20.938 37.26 20.74C37.26 20.542 37.134 20.488 36.288 20.29C35.586 20.146 34.812 19.282 34.668 18.49C34.596 18.13 34.434 17.86 34.29 17.86C34.146 17.86 33.984 18.13 33.912 18.49Z" fill="white"/>
<path d="M36.45 26.824C36.252 26.86 35.442 27.202 34.65 27.58C30.618 29.452 29.574 32.422 32.04 34.96C33.57 36.544 37.098 37.912 40.86 38.38C42.696 38.614 47.25 38.596 49.23 38.362C53.406 37.876 56.646 36.544 58.32 34.654C60.282 32.422 59.472 29.794 56.25 27.94C55.476 27.508 54.162 27.004 54.054 27.094C54.036 27.13 54.324 28.156 54.72 29.38C55.53 31.864 55.602 32.638 55.08 33.466C54.648 34.186 53.784 34.636 51.93 35.104C47.25 36.292 43.038 36.31 38.232 35.122C36.306 34.654 35.442 34.204 35.01 33.466C34.398 32.44 34.542 31.666 35.802 29.146C36.432 27.886 36.918 26.824 36.882 26.788C36.846 26.77 36.648 26.788 36.45 26.824Z" fill="white"/>
<path d="M50.94 28.768C47.628 29.704 42.66 29.722 39.24 28.84C38.502 28.642 37.836 28.48 37.764 28.48C37.512 28.48 36 31.702 36 32.224C36 32.512 36.162 32.89 36.342 33.052C37.062 33.718 42.534 34.78 45.126 34.78C46.692 34.78 50.562 34.186 52.254 33.682C53.604 33.286 54.18 32.836 54.18 32.188C54.162 31.504 52.992 28.39 52.722 28.372C52.578 28.354 51.786 28.534 50.94 28.768Z" fill="white"/>
<path d="M44.28 41.62C44.136 41.71 43.614 41.926 43.11 42.088C41.976 42.448 41.58 42.898 41.58 43.798C41.58 44.41 41.724 44.644 42.768 45.76C44.586 47.668 45.432 47.704 47.25 45.886C48.456 44.68 48.69 44.086 48.348 43.024C48.186 42.538 48.006 42.412 47.34 42.214C46.89 42.088 46.278 41.854 45.954 41.71C45.306 41.404 44.676 41.368 44.28 41.62Z" fill="white"/>
<path d="M27.954 42.628C27.828 42.682 27.72 42.844 27.72 42.97C27.72 43.222 27.954 43.276 30.96 43.6C32.976 43.816 35.55 44.356 37.44 44.968C39.078 45.49 39.096 45.49 39.402 45.022C39.6 44.68 39.582 44.59 39.294 44.284C38.646 43.636 35.406 42.988 31.95 42.808C30.762 42.736 29.43 42.646 28.98 42.61C28.53 42.574 28.062 42.574 27.954 42.628Z" fill="white"/>
<path d="M58.59 42.736C55.044 42.97 51.894 43.528 50.994 44.086C50.526 44.356 50.454 44.896 50.832 45.202C51.03 45.382 51.354 45.346 52.326 45.022C52.992 44.824 53.838 44.572 54.18 44.5C54.522 44.428 55.404 44.23 56.124 44.068C56.862 43.906 58.23 43.69 59.184 43.6C61.848 43.312 62.28 43.222 62.28 42.97C62.28 42.7 61.866 42.502 61.326 42.556C61.11 42.556 59.886 42.646 58.59 42.736Z" fill="white"/>
<path d="M34.29 45.976C32.742 46.174 30.042 46.624 29.07 46.84C28.674 46.93 27.828 47.092 27.18 47.2C25.506 47.506 24.804 47.74 24.894 47.974C24.984 48.262 25.83 48.226 27.99 47.848C29.844 47.524 34.308 47.218 37.188 47.2C38.502 47.2 38.916 47.128 39.24 46.876C39.582 46.588 39.618 46.48 39.438 46.156C39.24 45.778 39.114 45.76 37.386 45.796C36.378 45.796 34.992 45.886 34.29 45.976Z" fill="white"/>
<path d="M50.688 46.138C50.4 46.552 50.4 46.588 50.778 46.876C51.084 47.128 51.516 47.2 52.902 47.2C55.71 47.218 60.084 47.524 61.92 47.83C64.89 48.334 65.16 48.352 65.16 48.046C65.16 47.686 65.034 47.65 61.452 46.93C57.888 46.21 56.052 45.958 53.082 45.814C51.03 45.724 50.976 45.724 50.688 46.138Z" fill="white"/>
<path d="M36.9 48.01C35.226 48.514 31.86 49.882 31.518 50.188C30.96 50.692 31.896 50.692 33.372 50.188C34.182 49.918 35.82 49.504 37.044 49.27C38.268 49.018 39.33 48.784 39.438 48.73C39.708 48.55 39.618 47.794 39.312 47.668C38.862 47.488 38.34 47.56 36.9 48.01Z" fill="white"/>
<path d="M50.634 47.686C50.508 47.722 50.4 47.956 50.4 48.19C50.4 48.694 50.832 48.874 53.01 49.27C53.91 49.432 55.404 49.81 56.358 50.116C58.122 50.692 58.95 50.71 58.5 50.17C58.374 50.026 58.212 49.9 58.122 49.9C58.032 49.9 57.546 49.702 57.024 49.468C55.368 48.712 54.81 48.514 53.136 48.028C51.516 47.56 51.066 47.506 50.634 47.686Z" fill="white"/>
<path d="M32.346 53.698C31.968 53.896 31.068 54.166 30.366 54.31C28.674 54.634 28.44 54.724 28.44 55.138C28.44 55.516 28.908 55.822 29.394 55.75C29.574 55.714 30.06 55.66 30.474 55.624L31.23 55.57L31.158 57.622C31.14 58.756 31.068 59.89 31.032 60.142C30.78 61.942 30.78 65.632 31.014 67.234C31.32 69.124 31.662 69.88 32.202 69.88C32.67 69.88 32.742 69.574 32.436 68.728C32.076 67.666 31.968 63.868 32.22 61.15C32.598 56.884 32.634 55.858 32.418 55.588C32.238 55.372 32.346 55.264 33.102 54.994C33.768 54.76 34.038 54.562 34.11 54.256C34.344 53.338 33.534 53.068 32.346 53.698Z" fill="white"/>
<path d="M75.546 53.698C75.168 53.896 74.268 54.166 73.566 54.31C71.874 54.634 71.64 54.724 71.64 55.138C71.64 55.516 72.108 55.822 72.594 55.75C72.774 55.714 73.26 55.66 73.674 55.624L74.43 55.57L74.358 57.622C74.34 58.756 74.268 59.89 74.232 60.142C73.98 61.942 73.98 65.632 74.214 67.234C74.52 69.124 74.862 69.88 75.402 69.88C75.87 69.88 75.942 69.574 75.636 68.728C75.276 67.666 75.168 63.868 75.42 61.15C75.798 56.884 75.834 55.858 75.618 55.588C75.438 55.372 75.546 55.264 76.302 54.994C76.968 54.76 77.238 54.562 77.31 54.256C77.544 53.338 76.734 53.068 75.546 53.698Z" fill="white"/>
<path d="M47.52 53.86C47.412 54.058 47.232 56.452 47.124 59.314C47.016 62.104 46.908 64.408 46.908 64.408C46.89 64.426 46.62 64.498 46.278 64.57L45.666 64.696L45.774 60.61C45.882 57.064 45.846 56.47 45.612 56.092C45.252 55.57 44.892 55.534 44.64 56.002C44.532 56.236 44.46 58.63 44.46 62.572C44.46 67.972 44.496 68.818 44.748 69.052C45.396 69.718 45.72 69.124 45.72 67.198V65.776L46.278 65.65C46.584 65.578 46.854 65.56 46.872 65.596C46.908 65.614 46.98 66.46 47.034 67.468C47.106 68.476 47.196 69.412 47.268 69.574C47.394 69.916 47.79 70.078 48.168 69.934C48.402 69.844 48.42 69.592 48.312 68.278C48.132 66.1 48.186 60.826 48.402 57.118C48.6 53.914 48.546 53.5 47.952 53.5C47.826 53.5 47.628 53.662 47.52 53.86Z" fill="white"/>
<path d="M13.374 54.256C12.888 54.868 12.69 57.658 12.69 63.508C12.69 68.296 12.744 69.52 12.942 69.754C13.212 70.096 13.302 70.114 13.662 69.898C13.896 69.754 14.04 69.142 14.598 66.1C14.76 65.182 14.868 64.804 15.57 62.5C15.732 61.96 15.912 61.384 15.948 61.24C16.272 59.908 16.524 59.206 16.632 59.44C16.686 59.584 16.938 61.114 17.19 62.842C17.46 64.57 17.802 66.37 17.964 66.874C18.81 69.394 19.962 67.558 19.98 63.652C19.998 62.266 20.214 58.738 20.43 56.38C20.538 55.156 20.394 54.688 19.944 54.85C19.44 55.048 19.062 57.442 18.792 62.23L18.648 64.57L18.414 63.13C18.288 62.338 18.108 60.862 18 59.836C17.784 57.46 17.388 56.074 16.884 55.912C16.668 55.858 16.416 55.912 16.29 56.038C16.038 56.308 15.03 59.44 14.292 62.212L13.86 63.85L13.95 60.88C14.004 59.242 14.13 57.334 14.256 56.65C14.364 55.948 14.436 55.156 14.436 54.868C14.4 54.13 13.752 53.77 13.374 54.256Z" fill="white"/>
<path d="M66.15 54.436C66.114 54.562 66.042 55.354 65.97 56.2C65.736 59.512 65.088 62.806 64.098 65.74C63.558 67.306 63.522 67.648 63.81 67.9C64.278 68.296 64.728 67.936 65.088 66.856C65.412 65.92 65.484 65.83 66.024 65.776C66.672 65.704 66.618 65.596 67.05 67.72C67.41 69.466 67.716 70.06 68.22 70.06C68.652 70.06 68.67 69.736 68.31 68.314C67.842 66.442 67.5 63.04 67.338 58.738C67.176 54.472 67.122 54.238 66.456 54.22C66.33 54.22 66.204 54.328 66.15 54.436ZM66.582 64.426C66.6 64.732 66.492 64.84 66.24 64.84C65.826 64.84 65.808 64.66 66.096 63.364L66.33 62.41L66.456 63.22C66.51 63.67 66.582 64.21 66.582 64.426Z" fill="white"/>
<path d="M24.336 56.362C24.048 56.542 23.724 60.97 23.706 65.344C23.67 69.178 23.706 69.322 24.498 69.34C24.75 69.34 24.804 68.764 24.912 64.696C24.984 62.158 25.11 59.422 25.182 58.63C25.254 57.838 25.254 57.01 25.182 56.812C25.038 56.38 24.642 56.164 24.336 56.362Z" fill="white"/>
<path d="M38.988 57.1C37.926 58.378 37.242 60.736 37.242 63.112C37.26 65.974 38.142 67.774 39.654 68.026C40.428 68.152 40.86 67.846 41.22 66.982C41.526 66.244 41.382 66.172 40.518 66.676C39.6 67.198 39.258 67.036 38.844 65.812C38.07 63.598 38.808 59.476 40.266 57.964C40.716 57.496 40.716 57.46 40.428 57.01C40.032 56.416 39.546 56.434 38.988 57.1Z" fill="white"/>
<path d="M58.374 56.83C57.87 57.19 56.952 59.152 56.61 60.574C56.088 62.788 56.376 65.794 57.222 66.982C57.708 67.648 58.464 68.08 59.166 68.08C59.652 68.08 60.264 67.45 60.588 66.586C60.732 66.19 60.588 66.19 59.634 66.676C59.058 66.964 58.77 67.018 58.554 66.892C57.834 66.442 57.402 63.562 57.78 61.726C58.05 60.448 59.004 58.216 59.454 57.838C59.868 57.514 59.832 56.974 59.418 56.74C58.95 56.506 58.824 56.506 58.374 56.83Z" fill="white"/>
</svg>
